<?xml version="1.0" encoding="UTF-8" standalone="no"?>
<svg xmlns="http://www.w3.org/2000/svg" width="512" height="512" viewBox="0 0 512 512" fill="none">
  <rect width="512" height="512" rx="100" fill="#2d219b"/>
  <path d="M140 176C140 162.745 150.745 152 164 152H348C361.255 152 372 162.745 372 176V336C372 349.255 361.255 360 348 360H164C150.745 360 140 349.255 140 336V176Z" stroke="white" stroke-width="16"/>
  <path d="M170 184H342V200H170V184Z" fill="white"/>
  <path d="M170 312H342V328H170V312Z" fill="white"/>
  <path d="M306 236C306 222.745 316.745 212 330 212H390C403.255 212 414 222.745 414 236V276C414 289.255 403.255 300 390 300H330C316.745 300 306 289.255 306 276V236Z" fill="#5345e0"/>
  <path d="M320 244H400V256H320V244Z" fill="white"/>
  <path d="M320 256H400V268H320V256Z" fill="white"/>
  <path d="M320 268H400V280H320V268Z" fill="white"/>
  <path d="M246 216C246 209.373 251.373 204 258 204C264.627 204 270 209.373 270 216V296C270 302.627 264.627 308 258 308C251.373 308 246 302.627 246 296V216Z" fill="white"/>
  <path d="M212 216C212 209.373 217.373 204 224 204C230.627 204 236 209.373 236 216V296C236 302.627 230.627 308 224 308C217.373 308 212 302.627 212 296V216Z" fill="white"/>
  <path d="M178 216C178 209.373 183.373 204 190 204C196.627 204 202 209.373 202 216V296C202 302.627 196.627 308 190 308C183.373 308 178 302.627 178 296V216Z" fill="white"/>
</svg>